<?xml version="1.0" encoding="UTF-8" standalone="no"?>
<!-- Created with Inkscape (http://www.inkscape.org/) -->

<svg
   xmlns:dc="http://purl.org/dc/elements/1.1/"
   xmlns:cc="http://creativecommons.org/ns#"
   xmlns:rdf="http://www.w3.org/1999/02/22-rdf-syntax-ns#"
   xmlns:svg="http://www.w3.org/2000/svg"
   xmlns="http://www.w3.org/2000/svg"
   xmlns:sodipodi="http://sodipodi.sourceforge.net/DTD/sodipodi-0.dtd"
   xmlns:inkscape="http://www.inkscape.org/namespaces/inkscape"
   width="1003.9058"
   height="277.33127"
   viewBox="0 0 941.16171 259.99806"
   id="svg2"
   version="1.1"
   inkscape:version="0.92.2 (5c3e80d, 2017-08-06)"
   sodipodi:docname="procwatch.svg">
  <sodipodi:namedview
     id="base"
     pagecolor="#ffffff"
     bordercolor="#666666"
     borderopacity="1.0"
     inkscape:pageopacity="0.0"
     inkscape:pageshadow="2"
     inkscape:zoom="0.98994949"
     inkscape:cx="510.32378"
     inkscape:cy="-4.2540566"
     inkscape:document-units="px"
     inkscape:current-layer="g5138"
     showgrid="true"
     inkscape:window-width="1916"
     inkscape:window-height="1033"
     inkscape:window-x="0"
     inkscape:window-y="45"
     inkscape:window-maximized="0"
     inkscape:snap-center="true"
     showguides="true"
     inkscape:guide-bbox="true"
     inkscape:snap-bbox="true"
     inkscape:bbox-nodes="true"
     inkscape:snap-smooth-nodes="true"
     inkscape:object-nodes="true"
     inkscape:snap-intersection-paths="true"
     fit-margin-top="16"
     fit-margin-left="16"
     fit-margin-right="16"
     fit-margin-bottom="16"
     units="px">
    <inkscape:grid
       type="xygrid"
       id="grid4136"
       originx="-165.00042"
       originy="-365.00065" />
    <sodipodi:guide
       position="129.99958,129.99934"
       orientation="0,1"
       id="guide4622"
       inkscape:locked="false" />
    <sodipodi:guide
       position="129.99958,129.99934"
       orientation="1,0"
       id="guide4624"
       inkscape:locked="false" />
    <sodipodi:guide
       position="229.99958,199.99934"
       orientation="1,0"
       id="guide4713"
       inkscape:locked="false" />
  </sodipodi:namedview>
  <defs
     id="defs4" />
  <metadata
     id="metadata7">
    <rdf:RDF>
      <cc:Work
         rdf:about="">
        <dc:format>image/svg+xml</dc:format>
        <dc:type
           rdf:resource="http://purl.org/dc/dcmitype/StillImage" />
        <dc:title></dc:title>
      </cc:Work>
    </rdf:RDF>
  </metadata>
  <g
     style="display:none"
     transform="translate(-165.00042,-427.3635)"
     id="g5138"
     inkscape:groupmode="layer"
     inkscape:label="text-inverse">
    <text
       inkscape:export-ydpi="9.383625"
       inkscape:export-xdpi="9.383625"
       id="text5140"
       y="588.32898"
       x="250.69336"
       style="font-style:normal;font-weight:normal;line-height:0%;font-family:sans-serif;text-align:start;letter-spacing:0px;word-spacing:0px;text-anchor:start;fill:#3e4837;fill-opacity:0;stroke:none;stroke-width:1px;stroke-linecap:butt;stroke-linejoin:miter;stroke-opacity:1"
       xml:space="preserve"><tspan
         style="font-style:normal;font-variant:normal;font-weight:normal;font-stretch:semi-expanded;font-size:120px;line-height:1.25;font-family:'BankGothic Md BT';-inkscape-font-specification:'BankGothic Md BT Semi-Expanded';text-align:start;text-anchor:start;fill:#3e4837;fill-opacity:0"
         y="588.32898"
         x="250.69336"
         id="tspan5142"
         sodipodi:role="line"><tspan
   id="tspan5144"
   style="fill:#3e4837;fill-opacity:0">PROC</tspan>WATCH</tspan></text>
    <path
       inkscape:export-ydpi="9.383625"
       inkscape:export-xdpi="9.383625"
       inkscape:connector-curvature="0"
       id="path5146"
       d="m 294.99847,442.3635 a 114.99914,114.99914 0 0 0 -114.99805,114.99805 114.99914,114.99914 0 0 0 114.99805,115 v -44.01758 h -8.90039 l -1.41602,11.29297 -0.88672,2.83593 -9.35351,12.90821 -10.64649,-2.85352 -1.64648,-15.85547 0.64843,-2.89843 4.41993,-10.49024 -15.41602,-8.90039 -6.87305,9.07227 -2.1875,2.01172 -14.55468,6.50195 -7.79297,-7.79297 6.50195,-14.55469 2.01172,-2.1875 9.07227,-6.87305 -8.9004,-15.41601 -10.49023,4.41992 -2.89844,0.64844 -15.85546,-1.64649 -2.85352,-10.64648 12.9082,-9.35352 2.83594,-0.88671 11.29297,-1.41602 v -17.80273 l -11.29297,-1.41602 -2.83594,-0.88867 -12.9082,-9.35352 2.85352,-10.64648 15.85546,-1.64453 2.89844,0.64843 10.49023,4.41993 8.9004,-15.41797 -9.07227,-6.87305 -2.01172,-2.18555 -6.50195,-14.55468 7.79297,-7.79493 14.55468,6.50391 2.1875,2.00977 6.87305,9.07422 15.41602,-8.90235 -4.41993,-10.48828 -0.64843,-2.89844 1.64648,-15.85742 10.64649,-2.85156 9.35351,12.9082 0.88672,2.83594 1.41602,11.29297 h 8.90039 z"
       style="display:inline;opacity:1;fill:#3e4837;fill-opacity:0;stroke:none;stroke-width:2;stroke-linecap:round;stroke-linejoin:round;stroke-miterlimit:4;stroke-dasharray:2, 4;stroke-dashoffset:2.5999999;stroke-opacity:0.44623658" />
    <path
       inkscape:export-ydpi="9.383625"
       inkscape:export-xdpi="9.383625"
       id="path5148"
       d="m 295.00042,442.3635 v 44.01758 h 8.90039 l 1.41602,-11.29297 0.88867,-2.83594 9.35351,-12.9082 10.64649,2.85156 1.64648,15.85742 -0.65039,2.89844 -4.41992,10.48828 15.41797,8.90235 6.87304,-9.07422 2.18555,-2.00977 14.55469,-6.50391 7.79492,7.79493 -6.5039,14.55468 -2.00977,2.18555 -9.07422,6.87305 4.24609,7.35547 36.54493,-24.36328 A 114.9991,114.9991 0 0 0 295.00042,442.3635 Z m 61.26758,150.8418 -4.24805,7.35546 9.07422,6.87305 2.00977,2.1875 6.5039,14.55469 -7.79492,7.79297 -14.55469,-6.50195 -2.18555,-2.01172 -6.87304,-9.07227 -15.41797,8.90039 4.41992,10.49024 0.65039,2.89843 -1.64648,15.85547 -10.64649,2.85352 -9.35351,-12.90821 -0.88867,-2.83593 -1.41602,-11.29297 h -8.90039 v 44.01758 a 114.9991,114.9991 0 0 0 97.85742,-54.76172 z"
       style="display:inline;opacity:1;fill:#3e4837;fill-opacity:0;stroke:none;stroke-width:2;stroke-linecap:round;stroke-linejoin:round;stroke-miterlimit:4;stroke-dasharray:2, 4;stroke-dashoffset:2.5999999;stroke-opacity:0.44623658"
       inkscape:connector-curvature="0" />
  </g>
  <g
     inkscape:label="text"
     inkscape:groupmode="layer"
     id="layer1"
     transform="translate(-165.00042,-427.3635)"
     style="display:inline">
    <text
       xml:space="preserve"
       style="font-style:normal;font-weight:normal;line-height:0%;font-family:sans-serif;text-align:start;letter-spacing:0px;word-spacing:0px;text-anchor:start;fill:#88aa00;fill-opacity:1;stroke:none;stroke-width:1px;stroke-linecap:butt;stroke-linejoin:miter;stroke-opacity:1"
       x="250.69336"
       y="588.32898"
       id="text4700"
       inkscape:export-xdpi="9.383625"
       inkscape:export-ydpi="9.383625"><tspan
         sodipodi:role="line"
         id="tspan4702"
         x="250.69336"
         y="588.32898"
         style="font-style:normal;font-variant:normal;font-weight:normal;font-stretch:semi-expanded;font-size:120px;line-height:1.25;font-family:'BankGothic Md BT';-inkscape-font-specification:'BankGothic Md BT Semi-Expanded';text-align:start;text-anchor:start;fill:#88aa00;fill-opacity:1"><tspan
   style="fill:#000000;fill-opacity:1"
   id="tspan4725">PROC</tspan>WATCH</tspan></text>
    <path
       style="display:inline;opacity:1;fill:#4d4d4d;fill-opacity:1;stroke:none;stroke-width:2;stroke-linecap:round;stroke-linejoin:round;stroke-miterlimit:4;stroke-dasharray:2, 4;stroke-dashoffset:2.5999999;stroke-opacity:0.44623658"
       d="m 294.99847,442.3635 a 114.99914,114.99914 0 0 0 -114.99805,114.99805 114.99914,114.99914 0 0 0 114.99805,115 v -44.01758 h -8.90039 l -1.41602,11.29297 -0.88672,2.83593 -9.35351,12.90821 -10.64649,-2.85352 -1.64648,-15.85547 0.64843,-2.89843 4.41993,-10.49024 -15.41602,-8.90039 -6.87305,9.07227 -2.1875,2.01172 -14.55468,6.50195 -7.79297,-7.79297 6.50195,-14.55469 2.01172,-2.1875 9.07227,-6.87305 -8.9004,-15.41601 -10.49023,4.41992 -2.89844,0.64844 -15.85546,-1.64649 -2.85352,-10.64648 12.9082,-9.35352 2.83594,-0.88671 11.29297,-1.41602 v -17.80273 l -11.29297,-1.41602 -2.83594,-0.88867 -12.9082,-9.35352 2.85352,-10.64648 15.85546,-1.64453 2.89844,0.64843 10.49023,4.41993 8.9004,-15.41797 -9.07227,-6.87305 -2.01172,-2.18555 -6.50195,-14.55468 7.79297,-7.79493 14.55468,6.50391 2.1875,2.00977 6.87305,9.07422 15.41602,-8.90235 -4.41993,-10.48828 -0.64843,-2.89844 1.64648,-15.85742 10.64649,-2.85156 9.35351,12.9082 0.88672,2.83594 1.41602,11.29297 h 8.90039 z"
       id="path4645-64-5"
       inkscape:connector-curvature="0"
       inkscape:export-xdpi="9.383625"
       inkscape:export-ydpi="9.383625" />
    <path
       inkscape:connector-curvature="0"
       style="display:inline;opacity:1;fill:#b3b3b3;fill-opacity:1;stroke:none;stroke-width:2;stroke-linecap:round;stroke-linejoin:round;stroke-miterlimit:4;stroke-dasharray:2, 4;stroke-dashoffset:2.5999999;stroke-opacity:0.44623658"
       d="m 295.00042,442.3635 v 44.01758 h 8.90039 l 1.41602,-11.29297 0.88867,-2.83594 9.35351,-12.9082 10.64649,2.85156 1.64648,15.85742 -0.65039,2.89844 -4.41992,10.48828 15.41797,8.90235 6.87304,-9.07422 2.18555,-2.00977 14.55469,-6.50391 7.79492,7.79493 -6.5039,14.55468 -2.00977,2.18555 -9.07422,6.87305 4.24609,7.35547 36.54493,-24.36328 A 114.9991,114.9991 0 0 0 295.00042,442.3635 Z m 61.26758,150.8418 -4.24805,7.35546 9.07422,6.87305 2.00977,2.1875 6.5039,14.55469 -7.79492,7.79297 -14.55469,-6.50195 -2.18555,-2.01172 -6.87304,-9.07227 -15.41797,8.90039 4.41992,10.49024 0.65039,2.89843 -1.64648,15.85547 -10.64649,2.85352 -9.35351,-12.90821 -0.88867,-2.83593 -1.41602,-11.29297 h -8.90039 v 44.01758 a 114.9991,114.9991 0 0 0 97.85742,-54.76172 z"
       id="path4645-6-2-3"
       inkscape:export-xdpi="9.383625"
       inkscape:export-ydpi="9.383625" />
  </g>
  <g
     inkscape:groupmode="layer"
     id="layer4"
     inkscape:label="inverse"
     style="display:none"
     transform="translate(-41.69336,-41.69336)">
    <path
       style="display:inline;opacity:1;fill:#ffffff;fill-opacity:1;stroke:none;stroke-width:2;stroke-linecap:round;stroke-linejoin:round;stroke-miterlimit:4;stroke-dasharray:2, 4;stroke-dashoffset:2.5999999;stroke-opacity:0.44623658"
       d="M 171.69141,56.693362 A 114.99914,114.99914 0 0 0 56.693359,171.69141 a 114.99914,114.99914 0 0 0 114.998051,115 v -44.01758 h -8.90039 l -1.41602,11.29297 -0.88672,2.83593 -9.35351,12.90821 -10.64649,-2.85352 -1.64648,-15.85547 0.64843,-2.89843 4.41993,-10.49024 -15.41602,-8.90039 -6.87305,9.07227 -2.1875,2.01172 -14.55468,6.50195 -7.792972,-7.79297 6.501952,-14.55469 2.01172,-2.1875 9.07227,-6.87305 -8.9004,-15.41601 -10.49023,4.41992 -2.898438,0.64844 -15.855468,-1.64649 -2.853516,-10.64648 12.908203,-9.35352 2.835938,-0.88671 11.292971,-1.41602 v -17.80273 l -11.292971,-1.41602 -2.835938,-0.88867 -12.908203,-9.35352 2.853516,-10.64648 15.855468,-1.64453 2.898438,0.64843 10.49023,4.41993 8.9004,-15.41797 -9.07227,-6.87305 -2.01172,-2.18555 -6.501952,-14.55468 7.792972,-7.794923 14.55468,6.503903 2.1875,2.00977 6.87305,9.07422 15.41602,-8.90235 -4.41993,-10.488277 -0.64843,-2.898438 1.64648,-15.857421 10.64649,-2.851563 9.35351,12.908203 0.88672,2.835938 1.41602,11.292968 h 8.90039 z"
       id="path4645-64-3"
       inkscape:connector-curvature="0"
       inkscape:export-xdpi="9.302001"
       inkscape:export-ydpi="9.302001" />
    <path
       style="display:inline;opacity:1;fill:#ffffff;fill-opacity:1;stroke:none;stroke-width:2;stroke-linecap:round;stroke-linejoin:round;stroke-miterlimit:4;stroke-dasharray:2, 4;stroke-dashoffset:2.5999999;stroke-opacity:0.44623658"
       d="m 171.69336,56.693362 v 44.017578 h 8.90039 l 1.41602,-11.292968 0.88867,-2.835938 9.35351,-12.908203 10.64649,2.851563 1.64648,15.857421 -0.65039,2.898438 -4.41992,10.488277 15.41797,8.90235 6.87304,-9.07422 2.18555,-2.00977 14.55469,-6.503903 7.79492,7.794923 -6.5039,14.55468 -2.00977,2.18555 -9.07422,6.87305 4.24609,7.35547 36.54493,-24.36328 A 114.9991,114.9991 0 0 0 171.69336,56.693362 Z m 61.26758,150.841798 -4.24805,7.35546 9.07422,6.87305 2.00977,2.1875 6.5039,14.55469 -7.79492,7.79297 -14.55469,-6.50195 -2.18555,-2.01172 -6.87304,-9.07227 -15.41797,8.90039 4.41992,10.49024 0.65039,2.89843 -1.64648,15.85547 -10.64649,2.85352 -9.35351,-12.90821 -0.88867,-2.83593 -1.41602,-11.29297 h -8.90039 v 44.01758 a 114.9991,114.9991 0 0 0 97.85742,-54.76172 z"
       id="path4645-6-2-8"
       inkscape:connector-curvature="0"
       inkscape:export-xdpi="9.302001"
       inkscape:export-ydpi="9.302001" />
    <text
       xml:space="preserve"
       style="font-style:normal;font-weight:normal;line-height:0%;font-family:sans-serif;text-align:start;letter-spacing:0px;word-spacing:0px;text-anchor:start;display:inline;fill:#ffffff;fill-opacity:1;stroke:none;stroke-width:1px;stroke-linecap:butt;stroke-linejoin:miter;stroke-opacity:1"
       x="127.3863"
       y="202.65884"
       id="text4700-0-7"
       inkscape:export-xdpi="9.302001"
       inkscape:export-ydpi="9.302001"><tspan
         sodipodi:role="line"
         id="tspan4702-2-9"
         x="127.3863"
         y="202.65884"
         style="font-style:normal;font-variant:normal;font-weight:normal;font-stretch:semi-expanded;font-size:120px;line-height:1.25;font-family:'BankGothic Md BT';-inkscape-font-specification:'BankGothic Md BT Semi-Expanded';text-align:start;text-anchor:start;fill:#ffffff;fill-opacity:1"><tspan
           style="fill:#ffffff;fill-opacity:1"
           id="tspan4725-9-3">P</tspan></tspan></text>
  </g>
  <g
     inkscape:groupmode="layer"
     id="layer2"
     inkscape:label="icon"
     style="display:none"
     transform="translate(-41.69336,-41.69336)">
    <path
       style="opacity:1;fill:#4d4d4d;fill-opacity:1;stroke:none;stroke-width:2;stroke-linecap:round;stroke-linejoin:round;stroke-miterlimit:4;stroke-dasharray:2, 4;stroke-dashoffset:2.5999999;stroke-opacity:0.44623658"
       d="M 171.69141,56.693359 A 114.99914,114.99914 0 0 0 56.693359,171.69141 a 114.99914,114.99914 0 0 0 114.998051,115 v -44.01758 h -8.90039 l -1.41602,11.29297 -0.88672,2.83593 -9.35351,12.90821 -10.64649,-2.85352 -1.64648,-15.85547 0.64843,-2.89843 4.41993,-10.49024 -15.41602,-8.90039 -6.87305,9.07227 -2.1875,2.01172 -14.55468,6.50195 -7.792972,-7.79297 6.501952,-14.55469 2.01172,-2.1875 9.07227,-6.87305 -8.9004,-15.41601 -10.49023,4.41992 -2.898438,0.64844 -15.855468,-1.64649 -2.853516,-10.64648 12.908203,-9.35352 2.835938,-0.88671 11.292971,-1.41602 v -17.80273 l -11.292971,-1.41602 -2.835938,-0.88867 -12.908203,-9.35352 2.853516,-10.64648 15.855468,-1.64453 2.898438,0.64843 10.49023,4.41993 8.9004,-15.41797 -9.07227,-6.87305 -2.01172,-2.18555 -6.501952,-14.55468 7.792972,-7.794926 14.55468,6.503906 2.1875,2.00977 6.87305,9.07422 15.41602,-8.90235 -4.41993,-10.48828 -0.64843,-2.898438 1.64648,-15.857421 10.64649,-2.851563 9.35351,12.908203 0.88672,2.835938 1.41602,11.292971 h 8.90039 z"
       id="path4645-64"
       inkscape:connector-curvature="0"
       inkscape:export-xdpi="9"
       inkscape:export-ydpi="9" />
    <path
       style="opacity:1;fill:#b3b3b3;fill-opacity:1;stroke:none;stroke-width:2;stroke-linecap:round;stroke-linejoin:round;stroke-miterlimit:4;stroke-dasharray:2, 4;stroke-dashoffset:2.5999999;stroke-opacity:0.44623658"
       d="m 171.69336,56.693359 v 44.017581 h 8.90039 l 1.41602,-11.292971 0.88867,-2.835938 9.35351,-12.908203 10.64649,2.851563 1.64648,15.857421 -0.65039,2.898438 -4.41992,10.48828 15.41797,8.90235 6.87304,-9.07422 2.18555,-2.00977 14.55469,-6.503906 7.79492,7.794926 -6.5039,14.55468 -2.00977,2.18555 -9.07422,6.87305 4.24609,7.35547 36.54493,-24.36328 A 114.9991,114.9991 0 0 0 171.69336,56.693359 Z m 61.26758,150.841801 -4.24805,7.35546 9.07422,6.87305 2.00977,2.1875 6.5039,14.55469 -7.79492,7.79297 -14.55469,-6.50195 -2.18555,-2.01172 -6.87304,-9.07227 -15.41797,8.90039 4.41992,10.49024 0.65039,2.89843 -1.64648,15.85547 -10.64649,2.85352 -9.35351,-12.90821 -0.88867,-2.83593 -1.41602,-11.29297 h -8.90039 v 44.01758 a 114.9991,114.9991 0 0 0 97.85742,-54.76172 z"
       id="path4645-6-2"
       inkscape:connector-curvature="0"
       inkscape:export-xdpi="9"
       inkscape:export-ydpi="9" />
    <path
       inkscape:connector-curvature="0"
       style="opacity:1;fill:none;fill-opacity:1;stroke:none;stroke-width:2;stroke-linecap:round;stroke-linejoin:round;stroke-miterlimit:4;stroke-dasharray:2, 4;stroke-dashoffset:2.5999999;stroke-opacity:1"
       d="M 51.693359,51.691406 V 291.69141 H 291.69336 v -45 l -60,-40 h -95 v -70 h 95 l 60,-40.000004 v -45 z"
       id="rect4793"
       inkscape:export-xdpi="9"
       inkscape:export-ydpi="9" />
    <text
       xml:space="preserve"
       style="font-style:normal;font-weight:normal;line-height:0%;font-family:sans-serif;text-align:start;letter-spacing:0px;word-spacing:0px;text-anchor:start;fill:#88aa00;fill-opacity:1;stroke:none;stroke-width:1px;stroke-linecap:butt;stroke-linejoin:miter;stroke-opacity:1"
       x="127.3863"
       y="202.65884"
       id="text4700-0"
       inkscape:export-xdpi="9"
       inkscape:export-ydpi="9"><tspan
         sodipodi:role="line"
         id="tspan4702-2"
         x="127.3863"
         y="202.65884"
         style="font-style:normal;font-variant:normal;font-weight:normal;font-stretch:semi-expanded;font-size:120px;line-height:1.25;font-family:'BankGothic Md BT';-inkscape-font-specification:'BankGothic Md BT Semi-Expanded';text-align:start;text-anchor:start;fill:#88aa00;fill-opacity:1"><tspan
           style="fill:#000000;fill-opacity:1"
           id="tspan4725-9">P</tspan></tspan></text>
  </g>
</svg>
